<svg viewBox="0 0 32 32" xmlns="http://www.w3.org/2000/svg"><circle cx="10" cy="12" r="2"/><circle cx="16" cy="9" r="2"/><circle cx="22" cy="12" r="2"/><circle cx="23" cy="18" r="2"/><circle cx="19" cy="23" r="2"/><path d="m16.54 2a14 14 0 0 0 -14.54 14 4.82 4.82 0 0 0 6.09 4.65l1.12-.31a3 3 0 0 1 3.79 2.9v3.76a3 3 0 0 0 3 3 14 14 0 0 0 14-14.54 14.05 14.05 0 0 0 -13.46-13.46zm8.11 22.31a11.93 11.93 0 0 1 -8.65 3.69 1 1 0 0 1 -1-1v-3.76a5 5 0 0 0 -5-5 5.07 5.07 0 0 0 -1.33.18l-1.12.31a2.82 2.82 0 0 1 -3.55-2.73 12 12 0 0 1 12.47-12 12.18 12.18 0 0 1 11.53 11.53 11.89 11.89 0 0 1 -3.35 8.79z"/><path d="m0 0h32v32h-32z" fill="none"/></svg>